<?xml version="1.0" encoding="iso-8859-1"?>
<!-- Uploaded to: SVG Repo, www.svgrepo.com, Generator: SVG Repo Mixer Tools -->
<svg fill="#000000" height="800px" width="800px" version="1.1" id="Layer_1" xmlns="http://www.w3.org/2000/svg" xmlns:xlink="http://www.w3.org/1999/xlink" 
	 viewBox="0 0 512 512" xml:space="preserve">
<g>
	<g>
		<path d="M389.053,345.242c-10.63,0-19.026-0.13-28.328,0.113c-16.759-35.379-50.087-60.006-88.403-65.605v-45.096
			c30.45-0.476,92.264-8.283,142.337-58.357c67.829-67.829,58.104-157.205,57.656-160.976c-0.907-7.654-6.942-13.689-14.596-14.596
			c-3.775-0.447-93.148-10.173-160.977,57.657c-17.537,17.539-29.881,36.516-38.55,55.082
			C230.487,47.251,165.036,0.609,88.889,0.609H55.537c-9.209,0-16.676,7.466-16.676,16.676v33.352
			c0,101.145,82.288,183.434,183.434,183.434h16.676v45.684c-38.238,5.603-71.59,30.199-88.371,65.488h-28.36
			c-33.437,0-64.117,13.649-86.388,38.431C16.896,404.766,5.58,432.288,5.58,457.295C5.579,489.372,24.692,512,55.537,512h400.219
			c31.665,0,50.663-22.768,50.663-54.305C506.419,408.519,461.406,345.242,389.053,345.242z M320.326,81.964
			c23.387-23.387,52.77-38.599,87.331-45.213c12.69-2.429,23.822-3.196,31.97-3.337c-0.141,8.152-0.908,19.283-3.337,31.97
			c-6.614,34.561-21.826,63.944-45.213,87.33c-25.228,25.227-57.13,40.558-93.442,46.275l69.858-69.858
			c6.512-6.512,6.512-17.07,0-23.583c-6.511-6.512-17.07-6.512-23.583,0l-69.858,69.858
			C279.767,139.105,295.089,107.202,320.326,81.964z M167.384,105.548c-6.511-6.512-17.07-6.512-23.583,0s-6.512,17.07,0,23.583
			l71.416,71.416c-79.482-3.71-143.004-69.528-143.004-149.911V33.96h16.676c80.383,0,146.201,63.523,149.911,143.004
			L167.384,105.548z M455.756,478.648H55.537c-12.474,0-16.607-8.397-16.607-21.353c0-16.747,8.326-36.417,21.727-51.329
			c11.222-12.487,31.015-27.373,61.583-27.373h39.479c7.057,0,13.35-4.441,15.713-11.091c11.824-33.264,43.256-55.613,78.214-55.613
			c28.233,0,54.082,14.535,69.239,37.622c-20.678,5.761-39.426,17.232-54.53,33.676c-6.23,6.783-5.781,17.332,1.002,23.562
			c6.784,6.23,17.333,5.781,23.562-1.002c10.23-11.138,27.348-24.75,52.612-27.272c1.055,0.141,26.541-0.106,41.522-0.106
			c55.939,0,84.015,50.935,84.015,79.323C473.068,473.637,466.273,478.648,455.756,478.648z"/>
	</g>
</g>
</svg>